<?xml version="1.0" encoding="utf-8"?>
<svg version="1.1" xmlns="http://www.w3.org/2000/svg" viewBox="0 0 48 48">
  <path fill="#169154" d="M41,10H25v28h16c0.553,0,1-0.447,1-1V11C42,10.447,41.553,10,41,10z"/>
  <path fill="#18482a" d="M32,15h7v3h-7V15z M32,27h7v3h-7V27z M32,21h7v3h-7V21z"/>
  <path fill="#0c5524" d="M25,10H7c-0.553,0-1,0.447-1,1v26c0,0.553,0.447,1,1,1h18V10z"/>
  <path fill="#fff" d="M22.319,24.483l-2.83-3.952L22.297,16h-3.166l-1.547,2.981L16.015,16h-3.148l2.809,4.483l-2.83,3.952h3.166l1.547-2.981l1.547,2.981H22.319z"/>
</svg>